<svg width="146" height="35" viewBox="0 0 146 35" fill="none" xmlns="http://www.w3.org/2000/svg">
<path d="M41.4444 10.8521H45.113V25.7092H41.4444V10.8521ZM46.5758 20.1207C46.5758 16.4407 48.8615 14.2349 52.2901 14.2349C55.7187 14.2349 58.0044 16.4407 58.0044 20.1207C58.0044 23.8007 55.7987 26.0292 52.2901 26.0292C48.7815 26.0292 46.5758 23.8807 46.5758 20.1207ZM54.3701 20.1207C54.3701 18.0978 53.5815 16.9092 52.3244 16.9092C51.0673 16.9092 50.2901 18.0521 50.2901 20.1207C50.2901 22.1892 51.0673 23.3207 52.3244 23.3207C53.5815 23.3207 54.393 22.1892 54.393 20.1321L54.3701 20.1207ZM59.4673 26.475H63.0101C63.1714 26.8563 63.4531 27.1746 63.8122 27.3809C64.1713 27.5873 64.5879 27.6705 64.9987 27.6178C66.4044 27.6178 67.1358 26.8635 67.1358 25.7435V23.6864H67.1473C66.8445 24.3269 66.3549 24.8608 65.743 25.2178C65.131 25.5748 64.4253 25.7381 63.7187 25.6864C61.033 25.6864 59.2501 23.6407 59.2501 20.1207C59.2501 16.6007 60.953 14.4064 63.8215 14.4064C64.5462 14.3676 65.2652 14.5545 65.8791 14.9413C66.4932 15.3282 66.9722 15.896 67.2501 16.5664H67.1473V14.4978H70.7815V25.6292C70.7815 28.315 68.4044 29.9949 64.9073 29.9949C61.7301 29.9835 59.6958 28.5321 59.4901 26.4864L59.4673 26.475ZM67.1473 20.1207C67.1473 18.3264 66.3244 17.1949 65.0215 17.1949C63.7187 17.1949 62.9187 18.3378 62.9187 20.1207C62.9187 21.9035 63.7073 22.955 65.0215 22.955C66.3358 22.955 67.1473 21.9835 67.1473 20.1207ZM72.233 20.1207C72.233 16.4407 74.5187 14.2349 77.9473 14.2349C81.3758 14.2349 83.6615 16.4407 83.6615 20.1207C83.6615 23.8007 81.4444 26.0292 77.9473 26.0292C74.4501 26.0292 72.2558 23.8807 72.2558 20.1207H72.233ZM80.0273 20.1207C80.0273 18.0978 79.2273 16.9092 77.9815 16.9092C76.7358 16.9092 75.9473 18.0521 75.9473 20.1207C75.9473 22.1892 76.7244 23.3207 77.9815 23.3207C79.2387 23.3207 80.0501 22.1892 80.0501 20.1321L80.0273 20.1207ZM85.1473 11.7892C85.1313 11.4155 85.2275 11.0456 85.4235 10.7271C85.6195 10.4084 85.9063 10.1559 86.2471 10.0017C86.5879 9.84741 86.967 9.79872 87.3357 9.86181C87.7044 9.92478 88.0458 10.0967 88.3159 10.3553C88.5861 10.614 88.7727 10.9475 88.8518 11.3131C88.9308 11.6787 88.8987 12.0596 88.7595 12.4067C88.6203 12.7539 88.3804 13.0515 88.0707 13.2612C87.761 13.4709 87.3956 13.5832 87.0215 13.5835C86.7826 13.5896 86.5446 13.5481 86.3218 13.4616C86.0989 13.3749 85.8954 13.2449 85.7231 13.0791C85.5509 12.9132 85.4133 12.7148 85.3185 12.4953C85.2235 12.2759 85.1731 12.0397 85.1701 11.8007L85.1473 11.7892ZM85.1473 14.4864H88.8615V25.7549H85.2044L85.1473 14.4864ZM102.222 20.1207C102.222 23.7892 100.576 25.915 97.7758 25.915C97.059 25.9592 96.3459 25.7823 95.7327 25.4083C95.1196 25.0343 94.6361 24.4811 94.3473 23.8235H94.2787V29.3778H90.6101V14.5207H94.2558V16.5321H94.3244C94.6033 15.8616 95.0821 15.2932 95.6956 14.9047C96.3092 14.5161 97.0276 14.3261 97.753 14.3607C100.633 14.3378 102.29 16.4521 102.29 20.1321L102.222 20.1207ZM98.4844 20.1207C98.4844 18.3378 97.6501 17.1835 96.3587 17.1835C95.0673 17.1835 94.2558 18.3264 94.2444 20.1207C94.233 21.915 95.0673 23.0464 96.3587 23.0464C97.6501 23.0464 98.553 21.9835 98.553 20.1321L98.4844 20.1207ZM108.484 14.2235C111.559 14.2235 113.467 15.675 113.49 18.0064H110.142C110.142 17.195 109.467 16.6921 108.462 16.6921C107.456 16.6921 106.976 17.0807 106.976 17.6635C106.976 18.2464 107.399 18.4292 108.244 18.6007L110.599 19.0807C112.884 19.5607 113.799 20.4749 113.799 22.1778C113.799 24.4635 111.684 26.0178 108.542 26.0178C105.399 26.0178 103.353 24.5092 103.204 22.2121H106.759C106.862 23.0464 107.524 23.5378 108.599 23.5378C109.673 23.5378 110.176 23.195 110.176 22.5892C110.176 21.9835 109.833 21.8807 108.953 21.6978L106.827 21.2521C104.622 20.7835 103.467 19.6292 103.467 17.9035C103.536 15.6635 105.456 14.2349 108.553 14.2349L108.484 14.2235ZM126.084 25.7435H122.53V23.6292H122.462C122.263 24.3345 121.83 24.9508 121.233 25.3767C120.636 25.8026 119.913 26.0126 119.182 25.9721C118.63 25.99 118.079 25.8911 117.568 25.6815C117.057 25.472 116.595 25.1567 116.215 24.7563C115.833 24.3559 115.542 23.8794 115.358 23.3583C115.174 22.8371 115.102 22.2828 115.147 21.7321V14.4978H118.816V20.9435C118.816 22.2692 119.513 22.9892 120.656 22.9892C120.924 22.9872 121.188 22.9276 121.432 22.8147C121.675 22.7017 121.891 22.5378 122.065 22.3342C122.24 22.1305 122.369 21.8917 122.443 21.6341C122.516 21.3764 122.535 21.1059 122.496 20.8407V14.4978H126.153L126.084 25.7435ZM127.856 14.4864H131.422V16.6578H131.502C131.698 15.9621 132.121 15.3515 132.702 14.9213C133.283 14.4913 133.991 14.2659 134.713 14.2807C135.439 14.2176 136.162 14.4274 136.74 14.8691C137.32 15.3108 137.713 15.9528 137.844 16.6692H138.004C138.233 15.9489 138.692 15.3242 139.313 14.8923C139.932 14.4603 140.679 14.2453 141.433 14.2807C141.935 14.2616 142.435 14.3487 142.9 14.5362C143.367 14.7236 143.787 15.0074 144.136 15.3689C144.484 15.7303 144.752 16.1612 144.922 16.6335C145.094 17.1057 145.162 17.6086 145.124 18.1092V25.7549H141.433V19.0464C141.433 17.9035 140.896 17.2635 139.856 17.2635C139.625 17.2598 139.396 17.3059 139.185 17.3987C138.974 17.4916 138.786 17.6291 138.633 17.8017C138.48 17.9744 138.366 18.1779 138.298 18.3987C138.232 18.6195 138.214 18.8521 138.244 19.0807V25.7549H134.747V19.0121C134.747 17.8692 134.187 17.2635 133.182 17.2635C132.948 17.2617 132.718 17.3097 132.505 17.4043C132.291 17.4991 132.102 17.6381 131.946 17.8124C131.792 17.9867 131.676 18.1921 131.608 18.4147C131.538 18.6375 131.518 18.8723 131.547 19.1035V25.7549H127.879L127.856 14.4864Z" fill="#252525"/>
<path d="M34.1872 11.8235C34.1873 9.54884 33.5005 7.3272 32.2166 5.44955C30.9327 3.5719 29.1115 2.12579 26.9919 1.30065C24.8722 0.475492 22.5527 0.309778 20.3372 0.825195C18.1217 1.34061 16.1136 2.51314 14.5758 4.18918H0.312927V34.292H30.4272V20.2235C31.6091 19.1663 32.555 17.8718 33.2029 16.4244C33.8507 14.977 34.1862 13.4093 34.1872 11.8235ZM28.3929 11.8235C28.3952 12.9134 28.074 13.9796 27.4702 14.887C26.8662 15.7943 26.0067 16.5022 25.0003 16.9208C23.9939 17.3396 22.886 17.4503 21.8167 17.239C20.7474 17.0278 19.7648 16.504 18.9932 15.7341C18.2217 14.9642 17.696 13.9827 17.4825 12.9138C17.269 11.845 17.3775 10.7367 17.794 9.72953C18.2106 8.72228 18.9167 7.86129 19.8227 7.25549C20.7289 6.6497 21.7944 6.32634 22.8843 6.32633C24.3433 6.32633 25.7427 6.90513 26.7754 7.93571C27.8082 8.96629 28.3899 10.3645 28.3929 11.8235ZM24.6329 28.4978H6.10721V9.98347H11.7529C11.6439 10.5909 11.5865 11.2064 11.5815 11.8235C11.5846 14.8203 12.7763 17.6934 14.8954 19.8125C17.0144 21.9315 19.8875 23.1234 22.8843 23.1263C23.4703 23.1232 24.055 23.0735 24.6329 22.9778V28.4978Z" fill="#252525"/>
</svg>
