<svg width="136" height="28" viewBox="0 0 136 28" fill="none" xmlns="http://www.w3.org/2000/svg">
<path d="M43.9612 22.866C43.2814 22.9029 42.6091 22.7096 42.0526 22.3174C41.8201 22.1451 41.6331 21.9187 41.5076 21.6579C41.3821 21.397 41.3221 21.1095 41.3326 20.8203V10.226C41.3271 10.1812 41.3318 10.1356 41.3465 10.0928C41.3612 10.0501 41.3854 10.0114 41.4174 9.97935C41.4494 9.94735 41.4881 9.92313 41.5309 9.9085C41.5736 9.89376 41.6192 9.88907 41.664 9.89456H43.584C43.8012 9.89456 43.904 10.0088 43.904 10.226V19.9974C43.904 20.4317 44.0983 20.6488 44.4983 20.6488C44.6679 20.6558 44.8375 20.6366 45.0012 20.5917C45.2298 20.5917 45.3555 20.6603 45.3669 20.866L45.5383 22.2946C45.5465 22.3363 45.5457 22.3791 45.536 22.4205C45.5263 22.4618 45.5078 22.5006 45.4817 22.5341C45.4558 22.5677 45.4229 22.5954 45.3854 22.6151C45.3478 22.6349 45.3064 22.6464 45.264 22.6488C44.8435 22.7878 44.404 22.8611 43.9612 22.866Z" fill="#252525"/>
<path d="M54.7612 21.6431C53.7965 22.4403 52.584 22.8762 51.3326 22.8762C50.0812 22.8762 48.8688 22.4403 47.904 21.6431C47.0562 20.7871 46.5804 19.6309 46.5804 18.426C46.5804 17.2211 47.0562 16.0648 47.904 15.2088C48.8707 14.4158 50.0823 13.9824 51.3326 13.9824C52.5829 13.9824 53.7946 14.4158 54.7612 15.2088C55.5896 16.0727 56.0522 17.2233 56.0522 18.4202C56.0522 19.6172 55.5896 20.7678 54.7612 21.6317V21.6431ZM49.7098 20.1345C50.1575 20.5401 50.7399 20.7647 51.344 20.7647C51.9482 20.7647 52.5307 20.5401 52.9783 20.1345C53.3836 19.6687 53.6067 19.072 53.6067 18.4545C53.6067 17.8372 53.3836 17.2405 52.9783 16.7745C52.5307 16.3691 51.9482 16.1444 51.344 16.1444C50.7399 16.1444 50.1575 16.3691 49.7098 16.7745C49.3046 17.2405 49.0814 17.8372 49.0814 18.4545C49.0814 19.072 49.3046 19.6687 49.7098 20.1345Z" fill="#252525"/>
<path d="M66.624 14.2716C66.8412 14.2716 66.944 14.3858 66.944 14.603V22.7973C66.964 23.3504 66.8605 23.9009 66.6411 24.4089C66.4216 24.917 66.0918 25.3698 65.6755 25.7344C64.7514 26.5224 63.563 26.9308 62.3498 26.8773C61.254 26.9158 60.1727 26.6166 59.2526 26.0201C58.8597 25.7622 58.524 25.4261 58.2666 25.0329C58.009 24.6397 57.835 24.1977 57.7555 23.7344C57.7555 23.5058 57.7555 23.403 58.064 23.403H59.984C60.0655 23.4057 60.1446 23.4321 60.2115 23.4788C60.2784 23.5254 60.3304 23.5903 60.3612 23.6658C60.4858 24.0129 60.734 24.302 61.0583 24.4773C61.4536 24.6813 61.8936 24.7834 62.3383 24.7744C62.6067 24.7892 62.8752 24.7502 63.1284 24.6599C63.3815 24.5697 63.6141 24.4298 63.8126 24.2487C63.994 24.0592 64.135 23.8349 64.2274 23.5894C64.3197 23.3439 64.3613 23.0822 64.3498 22.8201V22.1001C63.6623 22.6057 62.8256 22.8672 61.9726 22.843C61.3756 22.8647 60.7804 22.7656 60.2226 22.5516C59.6648 22.3374 59.1562 22.0129 58.7269 21.5973C57.903 20.7449 57.4424 19.6057 57.4424 18.4201C57.4424 17.2346 57.903 16.0954 58.7269 15.243C59.1582 14.8311 59.6676 14.5097 60.225 14.2977C60.7824 14.0857 61.3766 13.9874 61.9726 14.0087C62.8503 13.9855 63.7095 14.2639 64.4069 14.7973V14.6144C64.4016 14.5706 64.4062 14.5262 64.4203 14.4844C64.4343 14.4426 64.4575 14.4045 64.4882 14.3727C64.5188 14.3409 64.5562 14.3165 64.5974 14.3009C64.6388 14.2854 64.683 14.2793 64.7269 14.283L66.624 14.2716ZM62.1898 20.8087C62.4842 20.8178 62.7771 20.7622 63.0476 20.6456C63.3181 20.5292 63.5598 20.3546 63.7555 20.1344C64.1355 19.6438 64.3416 19.0407 64.3416 18.4201C64.3416 17.7996 64.1355 17.1966 63.7555 16.7058C63.5605 16.4887 63.3203 16.3167 63.0518 16.2022C62.7832 16.0877 62.493 16.0334 62.2012 16.043C61.9034 16.0336 61.6071 16.089 61.3328 16.2055C61.0586 16.322 60.8128 16.4966 60.6126 16.7173C60.1917 17.1866 59.9703 17.8016 59.9955 18.4316C59.9749 19.0553 60.1914 19.6638 60.6012 20.1344C60.8019 20.3545 61.0477 20.5288 61.3219 20.6452C61.596 20.7615 61.892 20.8173 62.1898 20.8087Z" fill="#252525"/>
<path d="M76.8069 21.643C75.8403 22.436 74.6286 22.8694 73.3783 22.8694C72.1281 22.8694 70.9164 22.436 69.9498 21.643C69.1206 20.7771 68.6578 19.6247 68.6578 18.4258C68.6578 17.2271 69.1206 16.0745 69.9498 15.2087C70.9173 14.4177 72.1286 13.9856 73.3783 13.9856C74.6281 13.9856 75.8394 14.4177 76.8069 15.2087C77.6354 16.0726 78.0979 17.2232 78.0979 18.4201C78.0979 19.617 77.6354 20.7677 76.8069 21.6315V21.643ZM71.7441 20.1344C71.9631 20.3429 72.2214 20.5057 72.504 20.6136C72.7865 20.7215 73.0875 20.7723 73.3898 20.763C73.6901 20.7707 73.9891 20.7193 74.2695 20.6114C74.55 20.5035 74.8064 20.3415 75.0241 20.1344C75.4227 19.6654 75.6415 19.0699 75.6415 18.4544C75.6415 17.8389 75.4227 17.2434 75.0241 16.7744C74.8064 16.5674 74.55 16.4053 74.2695 16.2975C73.9891 16.1896 73.6901 16.1381 73.3898 16.1458C73.0875 16.1366 72.7865 16.1873 72.504 16.2952C72.2214 16.4031 71.9631 16.5661 71.7441 16.7744C71.3455 17.2434 71.1267 17.8389 71.1267 18.4544C71.1267 19.0699 71.3455 19.6654 71.7441 20.1344Z" fill="#252525"/>
<path d="M82.2241 12.3288C81.922 12.5933 81.5341 12.739 81.1326 12.739C80.7311 12.739 80.3434 12.5933 80.0412 12.3288C79.9043 12.1996 79.7951 12.0437 79.7205 11.8708C79.646 11.6979 79.6075 11.5115 79.6075 11.3231C79.6075 11.1348 79.646 10.9485 79.7205 10.7755C79.7951 10.6026 79.9043 10.4467 80.0412 10.3174C80.3465 10.0596 80.7331 9.91821 81.1326 9.91821C81.5322 9.91821 81.9188 10.0596 82.2241 10.3174C82.3611 10.4467 82.4702 10.6026 82.5447 10.7755C82.6194 10.9485 82.6578 11.1348 82.6578 11.3231C82.6578 11.5115 82.6194 11.6979 82.5447 11.8708C82.4702 12.0437 82.3611 12.1996 82.2241 12.3288ZM82.4641 22.866C81.7847 22.8994 81.1135 22.7064 80.5555 22.3174C80.3266 22.1426 80.1427 21.9154 80.0195 21.6549C79.8962 21.3944 79.837 21.1083 79.8469 20.8203V14.6031C79.8414 14.5583 79.8461 14.5127 79.8609 14.47C79.8755 14.4272 79.8997 14.3885 79.9317 14.3565C79.9637 14.3245 80.0025 14.3003 80.0452 14.2856C80.0879 14.2709 80.1335 14.2662 80.1783 14.2717H82.0983C82.3155 14.2717 82.4183 14.386 82.4183 14.6031V19.9974C82.4183 20.4317 82.6126 20.6488 83.0012 20.6488C83.1746 20.6551 83.3478 20.6358 83.5155 20.5917C83.7441 20.5917 83.8698 20.6603 83.8812 20.866L84.0526 22.2946C84.0609 22.3363 84.0601 22.3791 84.0503 22.4205C84.0406 22.4618 84.0221 22.5006 83.9961 22.5341C83.9701 22.5677 83.9372 22.5954 83.8997 22.6151C83.8621 22.6349 83.8207 22.6464 83.7783 22.6488C83.3541 22.7886 82.9108 22.8619 82.4641 22.866Z" fill="#252525"/>
<path d="M91.1154 13.9973C91.7152 13.9736 92.3134 14.0706 92.8749 14.2826C93.4364 14.4947 93.9497 14.8174 94.384 15.2315C95.1922 16.099 95.6416 17.2403 95.6416 18.4258C95.6416 19.6113 95.1922 20.7528 94.384 21.6201C93.9517 22.0381 93.4392 22.3639 92.8773 22.5779C92.3155 22.7921 91.7162 22.8901 91.1154 22.8658C90.2596 22.8849 89.4209 22.6241 88.7268 22.123V26.2487C88.7268 26.4658 88.6125 26.5687 88.3954 26.5687H86.4754C86.4316 26.5769 86.3865 26.5743 86.3438 26.5611C86.3013 26.5479 86.2626 26.5246 86.231 26.493C86.1996 26.4615 86.1762 26.4229 86.163 26.3802C86.1498 26.3377 86.1473 26.2926 86.1554 26.2487V16.8773C86.1689 16.7856 86.1606 16.6921 86.1316 16.6041C86.1025 16.5162 86.0531 16.4362 85.9876 16.3707C85.9221 16.3053 85.8422 16.256 85.7542 16.2269C85.6664 16.1977 85.5728 16.1896 85.4811 16.203H85.104C84.8525 16.203 84.7268 16.1115 84.7268 15.9287V14.5801C84.7209 14.4967 84.7437 14.4137 84.7916 14.3451C84.8394 14.2765 84.9093 14.2263 84.9897 14.203C85.385 14.0593 85.8034 13.9896 86.224 13.9973C86.6434 13.9601 87.0643 14.0491 87.4329 14.2527C87.8013 14.4563 88.1008 14.7654 88.2925 15.1401C88.6606 14.7678 89.1009 14.4744 89.5862 14.2778C90.0716 14.0814 90.592 13.9858 91.1154 13.9973ZM89.3325 20.1344C89.5363 20.3474 89.7811 20.5169 90.0522 20.6327C90.3233 20.7485 90.6149 20.8081 90.9097 20.8081C91.2044 20.8081 91.4962 20.7485 91.7672 20.6327C92.0382 20.5169 92.283 20.3474 92.4868 20.1344C92.9161 19.6557 93.1416 19.0283 93.1154 18.3858C93.1453 17.7429 92.9193 17.1141 92.4868 16.6373C92.283 16.4243 92.0382 16.2549 91.7672 16.1391C91.4962 16.0232 91.2044 15.9635 90.9097 15.9635C90.6149 15.9635 90.3233 16.0232 90.0522 16.1391C89.7811 16.2549 89.5363 16.4243 89.3325 16.6373C88.9168 17.1225 88.7003 17.7473 88.7268 18.3858C88.7036 19.0239 88.9197 19.6475 89.3325 20.1344Z" fill="#252525"/>
<path d="M101.035 22.866C100.009 22.9082 98.9922 22.6628 98.0982 22.1574C97.7396 21.9414 97.4342 21.6474 97.2046 21.2972C96.9751 20.947 96.8275 20.5497 96.7725 20.1346C96.7725 19.906 96.8525 19.7917 97.104 19.7917H98.784C98.8638 19.7949 98.9414 19.8199 99.008 19.8644C99.0745 19.9087 99.1275 19.9706 99.1611 20.0431C99.4011 20.6603 100.03 20.9689 101.035 20.9689C101.386 20.985 101.735 20.9142 102.053 20.7631C102.162 20.7138 102.256 20.6356 102.324 20.537C102.393 20.4383 102.433 20.3229 102.441 20.2031C102.441 19.906 102.258 19.7003 101.893 19.5631C101.459 19.4188 101.01 19.3229 100.555 19.2774C100.017 19.2164 99.4821 19.121 98.9554 18.9917C98.4431 18.8758 97.9774 18.6091 97.6182 18.226C97.4067 17.9657 97.251 17.6645 97.1607 17.3414C97.0706 17.0183 97.0478 16.6801 97.0939 16.3478C97.1401 16.0155 97.254 15.6962 97.4287 15.4099C97.6035 15.1235 97.8353 14.8762 98.1097 14.6831C98.9334 14.1585 99.8999 13.9028 100.875 13.9517C101.82 13.9198 102.754 14.1534 103.573 14.626C103.902 14.8129 104.186 15.0708 104.404 15.3812C104.621 15.6916 104.767 16.0466 104.83 16.4203C104.83 16.6489 104.727 16.7631 104.521 16.7631H102.83C102.758 16.7674 102.688 16.75 102.626 16.7133C102.565 16.6766 102.517 16.6222 102.487 16.5574C102.374 16.2868 102.161 16.0699 101.893 15.9517C101.59 15.7933 101.251 15.7146 100.91 15.7231C100.575 15.705 100.241 15.7718 99.9382 15.9174C99.8317 15.9586 99.7401 16.0306 99.6748 16.1243C99.6097 16.218 99.574 16.3291 99.5725 16.4431C99.5798 16.5995 99.6371 16.7493 99.7358 16.8707C99.8346 16.9921 99.9696 17.0785 100.121 17.1174C100.56 17.2829 101.016 17.3979 101.481 17.4603C102.016 17.5307 102.546 17.6299 103.07 17.7574C103.582 17.8734 104.048 18.1401 104.407 18.5231C104.599 18.7342 104.747 18.9812 104.843 19.25C104.94 19.5187 104.982 19.8038 104.967 20.0889C104.977 20.4839 104.884 20.8748 104.698 21.2234C104.511 21.5718 104.238 21.8661 103.904 22.0774C103.05 22.6257 102.05 22.9006 101.035 22.866Z" fill="#252525"/>
<path d="M117.047 22.2946C117.054 22.3352 117.051 22.3766 117.042 22.4165C117.032 22.4565 117.015 22.494 116.99 22.527C116.966 22.5601 116.935 22.5878 116.899 22.6088C116.864 22.6297 116.825 22.6433 116.784 22.6489C116.367 22.7851 115.931 22.8584 115.493 22.866C115.058 22.911 114.619 22.8432 114.219 22.669C113.818 22.4948 113.47 22.2202 113.207 21.8717C112.4 22.5658 111.355 22.9219 110.293 22.866C109.799 22.8888 109.306 22.808 108.846 22.6289C108.385 22.4498 107.967 22.1763 107.618 21.826C107.272 21.459 107.004 21.0259 106.829 20.5526C106.654 20.0794 106.577 19.5757 106.601 19.0717V14.6032C106.601 14.386 106.704 14.2717 106.921 14.2717H108.841C109.058 14.2717 109.161 14.386 109.161 14.6032V18.7289C109.141 19.2429 109.315 19.7456 109.653 20.1346C109.821 20.3129 110.025 20.453 110.251 20.5457C110.478 20.6384 110.722 20.6813 110.967 20.6717C111.217 20.6827 111.467 20.644 111.703 20.5576C111.938 20.4713 112.154 20.3392 112.338 20.1689C112.512 19.9894 112.648 19.7762 112.736 19.5422C112.825 19.3083 112.864 19.0587 112.853 18.8089V14.6032C112.853 14.386 112.955 14.2717 113.173 14.2717H115.115C115.333 14.2717 115.435 14.386 115.435 14.6032V19.986C115.435 20.4317 115.63 20.6489 116.007 20.6489C116.184 20.6557 116.361 20.6365 116.533 20.5917C116.576 20.5796 116.622 20.5774 116.665 20.5854C116.71 20.5933 116.751 20.6112 116.787 20.6376C116.824 20.664 116.854 20.6982 116.875 20.7378C116.896 20.7773 116.907 20.8212 116.91 20.866L117.047 22.2946Z" fill="#252525"/>
<path d="M135.207 22.2944C135.217 22.3354 135.218 22.3781 135.21 22.4195C135.201 22.4607 135.184 22.4998 135.159 22.5336C135.134 22.5675 135.102 22.5954 135.064 22.6152C135.027 22.6352 134.986 22.6467 134.944 22.6487C134.519 22.7869 134.077 22.8602 133.63 22.8659C132.95 22.901 132.279 22.7079 131.721 22.3173C131.48 22.15 131.285 21.9259 131.151 21.6647C131.017 21.4036 130.95 21.1134 130.955 20.8202V18.1344C130.979 17.622 130.808 17.1195 130.475 16.7287C130.315 16.5501 130.117 16.4093 129.896 16.3164C129.674 16.2236 129.435 16.181 129.195 16.1916C128.979 16.1835 128.765 16.2245 128.566 16.3116C128.368 16.3987 128.193 16.5296 128.053 16.6944C127.751 17.0774 127.597 17.556 127.618 18.043V22.2602C127.618 22.4773 127.515 22.5916 127.298 22.5916H125.367C125.322 22.5972 125.277 22.5924 125.234 22.5778C125.191 22.563 125.152 22.5388 125.12 22.5068C125.088 22.4749 125.064 22.436 125.049 22.3933C125.034 22.3506 125.03 22.3051 125.035 22.2602V18.1344C125.061 17.6276 124.902 17.1286 124.59 16.7287C124.45 16.5607 124.275 16.4255 124.078 16.3327C123.881 16.2399 123.665 16.1917 123.447 16.1916C123.214 16.1822 122.982 16.2221 122.765 16.3088C122.547 16.3955 122.352 16.5269 122.19 16.6944C121.863 17.0652 121.695 17.5495 121.721 18.043V22.2602C121.727 22.3051 121.722 22.3506 121.707 22.3933C121.693 22.436 121.669 22.4749 121.637 22.5068C121.605 22.5388 121.566 22.563 121.523 22.5778C121.48 22.5924 121.434 22.5972 121.39 22.5916H119.527C119.31 22.5916 119.207 22.4773 119.207 22.2602V16.8773C119.221 16.7856 119.213 16.6922 119.183 16.6042C119.154 16.5163 119.105 16.4363 119.039 16.3708C118.974 16.3053 118.894 16.256 118.806 16.2269C118.718 16.1978 118.624 16.1896 118.533 16.203H118.155C117.904 16.203 117.778 16.1116 117.778 15.9287V14.5802C117.773 14.4967 117.795 14.4138 117.843 14.3452C117.891 14.2765 117.961 14.2263 118.041 14.203C118.437 14.0594 118.855 13.9896 119.275 13.9973C119.679 13.9629 120.085 14.0434 120.445 14.2294C120.805 14.4155 121.104 14.6995 121.31 15.0487C121.695 14.6834 122.152 14.4013 122.651 14.2204C123.151 14.0395 123.682 13.9636 124.213 13.9973C124.728 13.9722 125.241 14.0687 125.712 14.2792C126.183 14.4898 126.597 14.8082 126.921 15.2087C127.299 14.7976 127.765 14.4758 128.282 14.2662C128.8 14.0567 129.358 13.965 129.915 13.9973C130.414 13.974 130.912 14.0543 131.378 14.2334C131.845 14.4124 132.269 14.6861 132.624 15.0373C132.971 15.4036 133.24 15.8366 133.415 16.3101C133.59 16.7835 133.667 17.2876 133.641 17.7916V19.9973C133.641 20.4316 133.835 20.6487 134.201 20.6487C134.378 20.657 134.555 20.6378 134.727 20.5916C134.963 20.5916 135.089 20.683 135.104 20.8659L135.207 22.2944Z" fill="#252525"/>
<path d="M1.19544 12.786C2.0386 9.39704 3.99136 6.38755 6.74275 4.23686C9.49418 2.08611 12.8861 0.917725 16.3783 0.917725C19.8705 0.917725 23.2624 2.08611 26.0138 4.23686C28.7653 6.38755 30.718 9.39704 31.5612 12.786H30.1897C27.8762 12.7519 25.6102 13.4433 23.7097 14.7631C23.6 14.8425 23.4855 14.9151 23.3669 14.9802H23.2069C23.0882 14.9151 22.9737 14.8425 22.864 14.7631C20.9468 13.4738 18.6887 12.7853 16.3783 12.7853C14.0679 12.7853 11.8098 13.4738 9.89258 14.7631C9.78287 14.8425 9.66835 14.9151 9.54973 14.9802H9.38972C9.2711 14.9151 9.15658 14.8425 9.04687 14.7631C7.14641 13.4433 4.88035 12.7519 2.56687 12.786H1.19544ZM27.7212 19.9517C28.4252 19.4034 29.2977 19.1166 30.1897 19.1402H32.0297V15.4717H30.1897C28.6185 15.4527 27.0833 15.9417 25.8126 16.866C25.0975 17.3932 24.2325 17.6776 23.344 17.6776C22.4556 17.6776 21.5905 17.3932 20.8754 16.866C19.5725 15.959 18.023 15.4727 16.4354 15.4727C14.8479 15.4727 13.2984 15.959 11.9954 16.866C11.2804 17.3932 10.4153 17.6776 9.52687 17.6776C8.63841 17.6776 7.77338 17.3932 7.0583 16.866C5.7719 15.9298 4.21464 15.4402 2.62401 15.4717H0.726868V19.1402H2.56687C3.45888 19.1166 4.33144 19.4034 5.03544 19.9517C6.33601 20.8593 7.88378 21.346 9.46972 21.346C11.0557 21.346 12.6034 20.8593 13.904 19.9517C14.6089 19.4052 15.4808 19.1185 16.3726 19.1402C17.2649 19.1146 18.1381 19.4017 18.8412 19.9517C20.1441 20.8588 21.6936 21.3449 23.2812 21.3449C24.8687 21.3449 26.4182 20.8588 27.7212 19.9517ZM27.7212 26.5117C28.4252 25.9634 29.2977 25.6766 30.1897 25.7002H32.0297V22.0317H30.1897C28.6185 22.0127 27.0833 22.5017 25.8126 23.426C25.0975 23.9532 24.2325 24.2376 23.344 24.2376C22.4556 24.2376 21.5905 23.9532 20.8754 23.426C19.5725 22.519 18.023 22.0328 16.4354 22.0328C14.8479 22.0328 13.2984 22.519 11.9954 23.426C11.2804 23.9532 10.4153 24.2376 9.52687 24.2376C8.63841 24.2376 7.77338 23.9532 7.0583 23.426C5.7719 22.49 4.21464 22.0002 2.62401 22.0317H0.726868V25.7002H2.56687C3.45888 25.6766 4.33144 25.9634 5.03544 26.5117C6.33601 27.4193 7.88378 27.906 9.46972 27.906C11.0557 27.906 12.6034 27.4193 13.904 26.5117C14.6089 25.9652 15.4808 25.6785 16.3726 25.7002C17.2649 25.6746 18.1381 25.9617 18.8412 26.5117C20.1441 27.4188 21.6936 27.9049 23.2812 27.9049C24.8687 27.9049 26.4182 27.4188 27.7212 26.5117Z" fill="#252525"/>
</svg>
