<svg width="151" height="37" viewBox="0 0 151 37" fill="none" xmlns="http://www.w3.org/2000/svg">
<path fill-rule="evenodd" clip-rule="evenodd" d="M19.7848 0.589147L19.7632 0.551758H10.8221L0.229828 18.71L7.50087 31.4322L7.50979 31.4168L10.2585 36.1778L31.2801 36.2718L38.6624 23.6137H38.6133L41.3404 18.8902L30.9111 0.637958L19.7848 0.589147ZM26.7012 12.6985H26.757L21.5011 3.57016L29.1812 3.60384L37.9114 18.8826L35.1789 23.6157L28.0178 23.6195L30.5145 19.2951L26.7012 12.6985ZM17.964 3.52516L21.5478 9.72491L16.5858 9.7248L8.09073 24.4569L7.51126 25.4579L3.66334 18.7251L12.53 3.52516H17.964ZM14.5183 19.2625L18.3034 12.6982L23.2668 12.6985L27.0805 19.296L24.5832 23.6214L17.0371 23.6255L14.5183 19.2625ZM9.22542 28.4415L10.6654 25.9442L12.8069 22.2452L15.3208 26.5998L22.8658 26.5957L22.8535 26.6168L33.4615 26.6294L29.5765 33.2908L11.9797 33.212L9.22542 28.4415Z" fill="#252525"/>
<path d="M95.4947 11.4328C96.5129 11.4328 97.3401 10.6055 97.3401 9.56617C97.3401 8.52676 96.5129 7.7207 95.4947 7.7207C94.4553 7.7207 93.628 8.52676 93.628 9.56617C93.628 10.6055 94.4553 11.4328 95.4947 11.4328ZM93.8401 23.6934H97.128V13.0874H93.8401V23.6934Z" fill="#252525"/>
<path d="M99.0419 28.7842H102.266V22.6327C102.881 23.4388 104.281 23.9902 105.745 23.9902C108.906 23.9902 110.815 21.5721 110.73 18.2206C110.645 14.8054 108.672 12.7478 105.724 12.7478C104.218 12.7478 102.796 13.4054 102.203 14.3811L102.033 13.0872H99.0419V28.7842ZM102.33 18.3902C102.33 16.7994 103.39 15.7388 104.918 15.7388C106.466 15.7388 107.442 16.8206 107.442 18.3902C107.442 19.9599 106.466 21.0418 104.918 21.0418C103.39 21.0418 102.33 19.9811 102.33 18.3902Z" fill="#252525"/>
<path d="M111.078 20.3418C111.163 22.4842 112.86 23.969 115.533 23.969C118.099 23.969 119.881 22.6115 119.881 20.4266C119.881 18.8569 118.948 17.8176 117.208 17.3932L115.32 16.9266C114.641 16.7569 114.217 16.5872 114.217 16.0357C114.217 15.4842 114.663 15.1236 115.32 15.1236C116.063 15.1236 116.55 15.6115 116.529 16.3327H119.478C119.394 14.1266 117.717 12.7478 115.384 12.7478C113.029 12.7478 111.269 14.1478 111.269 16.269C111.269 17.6902 112.054 18.8569 114.154 19.4085L116.02 19.8964C116.571 20.0448 116.805 20.2994 116.805 20.6599C116.805 21.1902 116.317 21.5297 115.49 21.5297C114.536 21.5297 114.027 21.0842 114.027 20.3418H111.078Z" fill="#252525"/>
<path d="M124.881 23.9692C126.175 23.9692 127.469 23.3753 128.127 22.5056L128.339 23.6934H131.415V13.0874H128.148V18.6025C128.148 20.1934 127.681 21.0632 126.175 21.0632C125.008 21.0632 124.245 20.5328 124.245 18.5601V13.0874H120.978V19.748C120.978 22.2723 122.378 23.9692 124.881 23.9692Z" fill="#252525"/>
<path d="M136.595 23.6932V17.9023C136.595 16.1206 137.549 15.6115 138.483 15.6115C139.523 15.6115 140.201 16.2478 140.201 17.563V23.6932H143.425V17.9023C143.425 16.0993 144.358 15.5902 145.291 15.5902C146.331 15.5902 147.031 16.2266 147.031 17.563V23.6932H150.213V16.7569C150.213 14.3387 148.94 12.7266 146.204 12.7266C144.677 12.7266 143.425 13.469 142.874 14.6145C142.237 13.469 141.135 12.7266 139.374 12.7266C138.207 12.7266 137.125 13.2569 136.489 14.1053L136.361 13.0872H133.307V23.6932H136.595Z" fill="#252525"/>
<path d="M50.6927 7.99805H47.2139V23.6951H56.8442V20.6193H50.6927V7.99805Z" fill="#252525"/>
<path d="M57.1764 18.3709C57.1764 21.7223 59.425 23.9496 62.8189 23.9496C66.1917 23.9496 68.4401 21.7223 68.4401 18.3709C68.4401 15.0193 66.1917 12.7708 62.8189 12.7708C59.425 12.7708 57.1764 15.0193 57.1764 18.3709ZM60.4643 18.3496C60.4643 16.7586 61.3977 15.6981 62.8189 15.6981C64.2189 15.6981 65.1522 16.7586 65.1522 18.3496C65.1522 19.9618 64.2189 21.0223 62.8189 21.0223C61.3977 21.0223 60.4643 19.9618 60.4643 18.3496Z" fill="#252525"/>
<path d="M68.9656 18.2009C68.9656 21.404 71.0444 23.5676 73.9929 23.5676C75.4141 23.5676 76.6444 23.0586 77.2595 22.2313V23.6949C77.2595 25.1586 76.3474 26.1343 74.7353 26.1343C73.2929 26.1343 72.2959 25.4555 72.2322 24.2464H68.9232C69.2201 27.1525 71.4687 29.104 74.5444 29.104C78.1717 29.104 80.4626 26.7495 80.4626 23.0162V13.0888H77.5141L77.3444 14.1707C76.7504 13.3009 75.499 12.7283 74.0565 12.7283C71.0868 12.7283 68.9656 14.9555 68.9656 18.2009ZM72.2747 18.1162C72.2747 16.5888 73.2929 15.5707 74.5868 15.5707C76.0929 15.5707 77.1959 16.5676 77.1959 18.1162C77.1959 19.6646 76.1141 20.7252 74.608 20.7252C73.3141 20.7252 72.2747 19.6646 72.2747 18.1162Z" fill="#252525"/>
<path d="M81.4147 18.3709C81.4147 21.7223 83.6631 23.9496 87.0571 23.9496C90.4298 23.9496 92.6783 21.7223 92.6783 18.3709C92.6783 15.0193 90.4298 12.7708 87.0571 12.7708C83.6631 12.7708 81.4147 15.0193 81.4147 18.3709ZM84.7025 18.3496C84.7025 16.7586 85.6359 15.6981 87.0571 15.6981C88.4571 15.6981 89.3904 16.7586 89.3904 18.3496C89.3904 19.9618 88.4571 21.0223 87.0571 21.0223C85.6359 21.0223 84.7025 19.9618 84.7025 18.3496Z" fill="#252525"/>
</svg>
