<svg width="104" height="41" viewBox="0 0 104 41" fill="none" xmlns="http://www.w3.org/2000/svg">
<path d="M47.6881 35.6499H50.4225V25.3356H47.6881V35.6499ZM47.6881 23.7271H50.4225V21.2742H47.6881V23.7271Z" fill="#252525"/>
<path d="M52.1844 39.0278H54.9188V34.4839H54.9591C55.5421 35.3685 56.4871 35.9516 57.9347 35.9516C60.5887 35.9516 62.3982 33.8405 62.3982 30.5029C62.3982 27.2859 60.649 25.0542 57.9146 25.0542C56.5072 25.0542 55.5421 25.7177 54.8786 26.6224H54.8183V25.3357H52.1844V39.0278ZM57.3517 33.6796C55.7231 33.6796 54.8585 32.4532 54.8585 30.5833C54.8585 28.7336 55.5421 27.2658 57.2511 27.2658C58.94 27.2658 59.6236 28.633 59.6236 30.5833C59.6236 32.5336 58.739 33.6796 57.3517 33.6796Z" fill="#252525"/>
<path d="M67.8528 35.9516C70.4263 35.9516 72.1956 34.705 72.1956 32.6341C72.1956 30.2214 70.2856 29.7389 68.5565 29.377C67.0887 29.0754 65.7215 28.9949 65.7215 28.1103C65.7215 27.3664 66.4252 26.9642 67.4909 26.9642C68.657 26.9642 69.3607 27.3664 69.4813 28.4722H71.9544C71.7533 26.4013 70.2454 25.0542 67.5311 25.0542C65.1787 25.0542 63.3289 26.1198 63.3289 28.3515C63.3289 30.6034 65.1385 31.1061 66.9882 31.468C68.3956 31.7494 69.7025 31.85 69.7025 32.8352C69.7025 33.559 69.0189 34.0214 67.8125 34.0214C66.5861 34.0214 65.7416 33.4987 65.5607 32.3124H63.0273C63.1882 34.504 64.857 35.9516 67.8528 35.9516Z" fill="#252525"/>
<path d="M82.5773 35.65V25.3357H79.8429V31.287C79.8429 32.6542 79.0588 33.6193 77.772 33.6193C76.6059 33.6193 76.063 32.9558 76.063 31.7494V25.3357H73.3487V32.2119C73.3487 34.4637 74.6355 35.9315 76.9276 35.9315C78.3752 35.9315 79.1794 35.3886 79.8832 34.4436H79.9435V35.65H82.5773Z" fill="#252525"/>
<path d="M84.346 35.65H87.0805V29.6584C87.0805 28.2912 87.8244 27.4066 88.9302 27.4066C89.9355 27.4066 90.5186 28.0097 90.5186 29.1759V35.65H93.253V29.6584C93.253 28.2912 93.9567 27.4066 95.1027 27.4066C96.108 27.4066 96.6911 28.0097 96.6911 29.1759V35.65H99.4255V28.7135C99.4255 26.4616 98.199 25.0542 96.0276 25.0542C94.7207 25.0542 93.635 25.7378 92.9313 26.8637H92.8911C92.3884 25.778 91.3429 25.0542 90.036 25.0542C88.6085 25.0542 87.6032 25.778 87.0402 26.723H86.9799V25.3357H84.346V35.65Z" fill="#252525"/>
<path d="M47.7283 17.9839H50.4627V3.60815H47.7283V17.9839Z" fill="#252525"/>
<path d="M57.1487 18.2856C60.3456 18.2856 62.5371 15.9131 62.5371 12.8369C62.5371 9.76067 60.3456 7.38818 57.1487 7.38818C53.9519 7.38818 51.7603 9.76067 51.7603 12.8369C51.7603 15.9131 53.9519 18.2856 57.1487 18.2856ZM57.1487 16.1946C55.4598 16.1946 54.535 14.8475 54.535 12.8369C54.535 10.8263 55.4598 9.45909 57.1487 9.45909C58.8175 9.45909 59.7625 10.8263 59.7625 12.8369C59.7625 14.8475 58.8175 16.1946 57.1487 16.1946Z" fill="#252525"/>
<path d="M68.3521 21.5026C69.8802 21.5026 71.2072 21.1407 72.0717 20.3364C72.8357 19.6327 73.2982 18.6475 73.2982 17.1999V7.66966H70.6643V8.75538H70.6241C70.0008 7.89082 69.0558 7.38818 67.769 7.38818C65.1553 7.38818 63.3055 9.35856 63.3055 12.4348C63.3055 15.5512 65.5574 17.3607 67.8495 17.3607C69.1564 17.3607 69.9405 16.838 70.5437 16.1544H70.604V17.2803C70.604 18.6877 69.8601 19.4316 68.3119 19.4316C67.0452 19.4316 66.4622 18.929 66.241 18.2856H63.5267C63.8082 20.2962 65.5373 21.5026 68.3521 21.5026ZM68.3119 15.1692C66.9045 15.1692 65.9796 14.1438 65.9796 12.3946C65.9796 10.6655 66.9045 9.57972 68.2918 9.57972C69.9405 9.57972 70.7447 10.8665 70.7447 12.3745C70.7447 13.9025 70.041 15.1692 68.3119 15.1692Z" fill="#252525"/>
<path d="M79.9446 18.2856C83.1414 18.2856 85.333 15.9131 85.333 12.8369C85.333 9.76067 83.1414 7.38818 79.9446 7.38818C76.7478 7.38818 74.5562 9.76067 74.5562 12.8369C74.5562 15.9131 76.7478 18.2856 79.9446 18.2856ZM79.9446 16.1946C78.2557 16.1946 77.3308 14.8475 77.3308 12.8369C77.3308 10.8263 78.2557 9.45909 79.9446 9.45909C81.6134 9.45909 82.5584 10.8263 82.5584 12.8369C82.5584 14.8475 81.6134 16.1946 79.9446 16.1946Z" fill="#252525"/>
<path d="M87.73 14.0431H99.5521V11.6907H87.73V14.0431Z" fill="#252525"/>
<path d="M100.419 23.5836C100.419 23.1209 100.794 22.7458 101.257 22.7458H102.932C103.395 22.7458 103.77 23.1209 103.77 23.5836C103.77 24.0462 103.395 24.4213 102.932 24.4213H101.257C100.794 24.4213 100.419 24.0462 100.419 23.5836Z" fill="#252525"/>
<path fill-rule="evenodd" clip-rule="evenodd" d="M20.0737 0.411865C31.1194 0.411865 40.0737 9.36617 40.0737 20.4119C40.0737 31.4576 31.1194 40.4119 20.0737 40.4119C9.02804 40.4119 0.0737305 31.4576 0.0737305 20.4119C0.0737305 9.36617 9.02804 0.411865 20.0737 0.411865ZM19.3508 1.90846C17.0692 2.22956 14.8966 4.06295 13.2101 7.12927C12.7209 8.0187 12.2795 9.00133 11.8948 10.0623C14.188 9.48604 16.7071 9.14629 19.3508 9.09374V1.90846ZM10.2045 10.5427C10.6828 9.04145 11.268 7.66026 11.9433 6.43252C12.7793 4.91246 13.7715 3.59982 14.8894 2.59164C8.81052 4.3571 4.01895 9.14865 2.2535 15.2276C3.26167 14.1097 4.57432 13.1175 6.09438 12.2815C7.32213 11.6062 8.7033 11.021 10.2045 10.5427ZM9.72412 12.233C9.14789 14.5262 8.80815 17.0453 8.7556 19.689H1.57031C1.89142 17.4073 3.72481 15.2347 6.79113 13.5483C7.68056 13.0591 8.66319 12.6177 9.72412 12.233ZM10.2017 19.689C10.2614 16.8039 10.6767 14.0953 11.3639 11.7021C13.7571 11.0149 16.4658 10.5995 19.3508 10.5398V13.6627C18.2745 16.4181 16.0793 18.6131 13.3238 19.689H10.2017ZM8.7556 21.1348H1.57031C1.89142 23.4165 3.72481 25.589 6.79113 27.2755C7.68056 27.7647 8.66319 28.2061 9.72412 28.5908C9.14789 26.2976 8.80815 23.7785 8.7556 21.1348ZM11.3639 29.1217C10.6767 26.7285 10.2614 24.0199 10.2017 21.1348H13.3238C16.0793 22.2107 18.2746 24.4057 19.3508 27.1611V30.284C16.4658 30.2243 13.7571 29.8089 11.3639 29.1217ZM10.2045 30.2811C8.7033 29.8028 7.32213 29.2176 6.09438 28.5423C4.57432 27.7063 3.26167 26.7141 2.2535 25.5962C4.01895 31.6751 8.81052 36.4667 14.8894 38.2321C13.7715 37.2239 12.7793 35.9113 11.9433 34.3912C11.268 33.1635 10.6828 31.7823 10.2045 30.2811ZM19.3508 38.9153C17.0692 38.5942 14.8966 36.7608 13.2101 33.6945C12.7209 32.8051 12.2795 31.8224 11.8948 30.7615C14.188 31.3377 16.7071 31.6775 19.3508 31.73V38.9153ZM25.258 38.2321C26.3759 37.2239 27.3681 35.9113 28.2042 34.3912C28.8794 33.1635 29.4646 31.7823 29.9429 30.2811C31.4441 29.8028 32.8253 29.2176 34.0531 28.5423C35.5731 27.7063 36.8858 26.7141 37.8939 25.5962C36.1285 31.6751 31.3369 36.4667 25.258 38.2321ZM28.2526 30.7615C27.8679 31.8224 27.4265 32.8051 26.9373 33.6945C25.2509 36.7608 23.0783 38.5942 20.7966 38.9153V31.73C23.4403 31.6775 25.9594 31.3377 28.2526 30.7615ZM30.4233 28.5908C31.4842 28.2061 32.4669 27.7647 33.3563 27.2755C36.4226 25.589 38.256 23.4165 38.5771 21.1348H31.3918C31.3393 23.7785 30.9995 26.2976 30.4233 28.5908ZM29.9458 21.1348C29.8861 24.0199 29.4707 26.7285 28.7835 29.1217C26.3903 29.8089 23.6817 30.2243 20.7966 30.284V27.1634C21.8725 24.407 24.0682 22.211 26.8245 21.1348H29.9458ZM31.3918 19.689H38.5771C38.256 17.4073 36.4226 15.2347 33.3563 13.5483C32.4669 13.0591 31.4842 12.6177 30.4233 12.233C30.9995 14.5262 31.3393 17.0453 31.3918 19.689ZM28.7835 11.7021C29.4707 14.0953 29.8861 16.8039 29.9458 19.689H26.8245C24.0682 18.6128 21.8725 16.4168 20.7966 13.6604V10.5398C23.6817 10.5995 26.3903 11.0149 28.7835 11.7021ZM29.9429 10.5427C31.4441 11.021 32.8253 11.6062 34.0531 12.2815C35.5731 13.1175 36.8858 14.1097 37.8939 15.2276C36.1285 9.14865 31.3369 4.3571 25.258 2.59164C26.3759 3.59982 27.3681 4.91246 28.2042 6.43252C28.8794 7.66026 29.4646 9.04145 29.9429 10.5427ZM20.7966 1.90846C23.0783 2.22956 25.2509 4.06295 26.9373 7.12927C27.4265 8.01871 27.8679 9.00133 28.2526 10.0623C25.9594 9.48604 23.4403 9.14629 20.7966 9.09374V1.90846Z" fill="#252525"/>
</svg>
