<svg width="85" height="41" viewBox="0 0 85 41" fill="none" xmlns="http://www.w3.org/2000/svg">
<path d="M0.215515 24.4265H2.73366V36.7738H0.215515V24.4265Z" fill="#252525"/>
<path d="M4.19405 32.5432C4.19239 31.6563 4.45385 30.7889 4.94536 30.0507C5.43687 29.3124 6.13633 28.7366 6.95522 28.3961C7.77407 28.0556 8.67558 27.9656 9.54562 28.1376C10.4157 28.3096 11.2151 28.7358 11.8428 29.3624C12.4705 29.9889 12.8982 30.7875 13.0718 31.6572C13.2455 32.5269 13.1573 33.4286 12.8182 34.2482C12.4792 35.0676 11.9047 35.7682 11.1674 36.261C10.4302 36.754 9.56322 37.017 8.67638 37.017C8.08651 37.0238 7.50136 36.9128 6.95505 36.6904C6.40876 36.4681 5.91232 36.1389 5.49486 35.7222C5.07741 35.3056 4.74732 34.8098 4.52395 34.2638C4.30058 33.7179 4.18842 33.133 4.19405 32.5432ZM10.6237 32.5432C10.6138 32.1603 10.4912 31.7889 10.2713 31.4754C10.0514 31.1618 9.74393 30.9201 9.38731 30.7803C9.03069 30.6406 8.64082 30.6092 8.26651 30.6899C7.89211 30.7707 7.54989 30.96 7.28251 31.2342C7.01522 31.5084 6.83469 31.8555 6.76353 32.2318C6.69237 32.6081 6.73378 32.9971 6.88251 33.3499C7.03131 33.7028 7.28082 34.0041 7.59985 34.2159C7.91896 34.4277 8.29335 34.5408 8.67638 34.5409C8.93833 34.5483 9.19904 34.5012 9.44198 34.4027C9.68491 34.3042 9.90482 34.1565 10.0878 33.9688C10.2708 33.7811 10.4129 33.5575 10.5051 33.3122C10.5974 33.0667 10.6377 32.805 10.6237 32.5432Z" fill="#252525"/>
<path d="M23.2815 28.3129V36.3541C23.2815 39.1996 21.0571 40.4 18.8076 40.4C18.0166 40.4588 17.2246 40.2988 16.5184 39.9376C15.8122 39.5763 15.219 39.0277 14.8038 38.3519L16.9694 37.1012C17.1412 37.4475 17.4132 37.7344 17.7499 37.9244C18.0866 38.1144 18.4726 38.1991 18.858 38.1672C19.1115 38.2095 19.3715 38.1929 19.6177 38.1188C19.8639 38.0448 20.0898 37.9152 20.2779 37.74C20.466 37.5648 20.6115 37.3487 20.7029 37.1084C20.7944 36.8681 20.8294 36.6101 20.8053 36.3541V35.5735C20.5093 35.9377 20.1315 36.2271 19.7028 36.4181C19.2741 36.6091 18.8064 36.6965 18.3376 36.6731C17.1978 36.6731 16.1047 36.2203 15.2987 35.4144C14.4927 34.6084 14.0399 33.5153 14.0399 32.3754C14.0399 31.2356 14.4927 30.1426 15.2987 29.3366C16.1047 28.5306 17.1978 28.0779 18.3376 28.0779C18.8061 28.0564 19.2731 28.1447 19.7016 28.3355C20.13 28.5265 20.508 28.8147 20.8053 29.1774V28.338L23.2815 28.3129ZM20.8053 32.3754C20.8221 31.9673 20.7163 31.5634 20.5018 31.2156C20.2871 30.868 19.9734 30.5924 19.601 30.4245C19.2285 30.2565 18.8143 30.2038 18.4116 30.2731C18.009 30.3424 17.6363 30.5306 17.3414 30.8133C17.0465 31.0962 16.8429 31.4607 16.7569 31.8601C16.6708 32.2594 16.7061 32.6755 16.8584 33.0546C17.0107 33.4338 17.2728 33.7587 17.6112 33.9877C17.9496 34.2168 18.3487 34.3393 18.7572 34.3396C19.024 34.3585 19.2916 34.3213 19.543 34.2304C19.7945 34.1394 20.0241 33.997 20.2171 33.8119C20.4099 33.6268 20.562 33.4034 20.6634 33.156C20.7647 32.9086 20.8131 32.6427 20.8053 32.3754Z" fill="#252525"/>
<path d="M24.7338 32.5432C24.7321 31.6563 24.9936 30.7889 25.4851 30.0507C25.9766 29.3124 26.6761 28.7366 27.4949 28.3961C28.3138 28.0556 29.2153 27.9656 30.0853 28.1376C30.9554 28.3096 31.7548 28.7358 32.3826 29.3624C33.0102 29.9889 33.4379 30.7875 33.6116 31.6572C33.7852 32.5269 33.697 33.4286 33.3579 34.2482C33.0189 35.0676 32.4444 35.7682 31.7072 36.261C30.9699 36.754 30.1029 37.017 29.2161 37.017C28.6263 37.0238 28.0411 36.9128 27.4948 36.6904C26.9484 36.4681 26.452 36.1389 26.0346 35.7222C25.6172 35.3056 25.287 34.8098 25.0637 34.2638C24.8403 33.7179 24.7281 33.133 24.7338 32.5432ZM31.1635 32.5432C31.1535 32.1603 31.0309 31.7889 30.811 31.4754C30.5911 31.1618 30.2836 30.9201 29.927 30.7803C29.5705 30.6406 29.1806 30.6092 28.8062 30.6899C28.4318 30.7707 28.0896 30.96 27.8222 31.2342C27.5549 31.5084 27.3744 31.8555 27.3032 32.2318C27.2321 32.6081 27.2735 32.9971 27.4222 33.3499C27.571 33.7028 27.8205 34.0041 28.1396 34.2159C28.4587 34.4277 28.8331 34.5408 29.2161 34.5409C29.4767 34.5459 29.7356 34.4971 29.9765 34.3976C30.2174 34.298 30.4353 34.1499 30.6164 33.9625C30.7976 33.7751 30.9381 33.5523 31.0294 33.3081C31.1206 33.0639 31.1605 32.8035 31.1467 32.5432H31.1635Z" fill="#252525"/>
<path d="M34.8651 26.0462C34.8651 25.7441 34.9547 25.4487 35.1225 25.1975C35.2904 24.9463 35.529 24.7505 35.8081 24.6348C36.0873 24.5192 36.3944 24.489 36.6908 24.5479C36.9871 24.6068 37.2593 24.7524 37.473 24.966C37.6867 25.1796 37.8321 25.4518 37.8911 25.7482C37.9501 26.0445 37.9198 26.3517 37.8042 26.6308C37.6886 26.9099 37.4928 27.1486 37.2416 27.3164C36.9903 27.4843 36.695 27.5739 36.3928 27.5739C35.9883 27.5717 35.601 27.41 35.315 27.124C35.0289 26.838 34.8673 26.4507 34.8651 26.0462ZM35.1253 28.3125H37.6434V36.7735H35.1253V28.3125Z" fill="#252525"/>
<path d="M48.6224 32.5434C48.6529 33.1027 48.5725 33.6625 48.3858 34.1906C48.1991 34.7187 47.9098 35.2046 47.5346 35.6205C47.1593 36.0363 46.7055 36.3738 46.1993 36.6135C45.693 36.8533 45.1444 36.9905 44.585 37.0173C44.1153 37.0398 43.6463 36.9591 43.2113 36.7807C42.7762 36.6023 42.3855 36.3307 42.0668 35.9849V40.1818H39.5487V28.3129H42.0668V29.1103C42.3855 28.7646 42.7762 28.4929 43.2113 28.3145C43.6463 28.1361 44.1153 28.0554 44.585 28.0779C45.1437 28.1047 45.6916 28.2417 46.1972 28.4809C46.7029 28.7202 47.1563 29.0569 47.5314 29.4719C47.9066 29.8868 48.1961 30.3717 48.3833 30.8988C48.5706 31.4259 48.6518 31.9848 48.6224 32.5434ZM46.1042 32.5434C46.0943 32.1494 45.969 31.767 45.7438 31.4436C45.5186 31.1202 45.2036 30.8698 44.8377 30.7237C44.4717 30.5775 44.0708 30.5418 43.6849 30.6212C43.2988 30.7005 42.9445 30.8913 42.6659 31.17C42.3872 31.4486 42.1964 31.8029 42.1171 32.1889C42.0378 32.575 42.0734 32.9758 42.2195 33.3417C42.3658 33.7077 42.6161 34.0228 42.9395 34.2478C43.263 34.473 43.6454 34.5983 44.0394 34.6083C44.3143 34.6258 44.5898 34.5842 44.8474 34.4864C45.1049 34.3886 45.3385 34.2367 45.5325 34.0412C45.7265 33.8455 45.8764 33.6107 45.9722 33.3524C46.0678 33.0941 46.1072 32.8182 46.0874 32.5434H46.1042Z" fill="#252525"/>
<path d="M56.4625 34.2389C56.4625 36.1863 54.7838 37.0172 52.9371 37.0172C52.1994 37.0825 51.4591 36.9255 50.8113 36.5665C50.1637 36.2075 49.6382 35.6629 49.3026 35.0027L51.5018 33.752C51.591 34.0574 51.7822 34.323 52.0432 34.5047C52.3044 34.6863 52.6198 34.7733 52.9371 34.7509C53.5499 34.7509 53.852 34.5578 53.852 34.2221C53.852 33.2903 49.6551 33.7856 49.6551 30.8646C49.6551 29.0179 51.2164 28.0862 53.0126 28.0862C53.6755 28.0661 54.3317 28.2235 54.9132 28.5424C55.4947 28.8611 55.9803 29.3296 56.3198 29.8992L54.1123 31.0576C54.0148 30.836 53.855 30.6473 53.6523 30.5147C53.4496 30.3821 53.2129 30.3112 52.9707 30.3105C52.5342 30.3105 52.2656 30.4784 52.2656 30.789C52.2992 31.7543 56.4625 31.108 56.4625 34.2389Z" fill="#252525"/>
<path d="M65.729 28.313V36.7739H63.2108V35.985C62.9179 36.3355 62.5461 36.6118 62.126 36.7913C61.7059 36.9707 61.2492 37.0482 60.7933 37.0174C59.1146 37.0174 57.6289 35.8003 57.6289 33.5088V28.313H60.147V33.1395C60.1249 33.3452 60.1489 33.5532 60.2172 33.7484C60.2854 33.9437 60.3963 34.1213 60.5418 34.2684C60.6872 34.4156 60.8637 34.5284 61.0581 34.5988C61.2526 34.6692 61.4605 34.6954 61.6663 34.6756C62.5897 34.6756 63.236 34.1383 63.236 32.938V28.313H65.729Z" fill="#252525"/>
<path d="M80.2839 31.5861V36.7735H77.7657V31.8044C77.7657 30.9651 77.3544 30.411 76.5486 30.411C75.7429 30.411 75.2224 31.007 75.2224 32.0059V36.7735H72.7043V31.8044C72.7043 30.9651 72.3014 30.411 71.4871 30.411C70.673 30.411 70.1694 31.007 70.1694 32.0059V36.7735H67.6512V28.3126H70.1694V29.0932C70.4326 28.7484 70.7777 28.4749 71.1735 28.2976C71.5694 28.1202 72.0032 28.0445 72.4357 28.0776C72.87 28.0564 73.3024 28.1483 73.6907 28.3438C74.0791 28.5395 74.4101 28.8324 74.6517 29.194C74.9326 28.8159 75.3047 28.5152 75.7334 28.32C76.162 28.1248 76.6331 28.0413 77.1026 28.0776C79.0165 28.0776 80.2839 29.4709 80.2839 31.5861Z" fill="#252525"/>
<path d="M82.4329 28.2629C83.4713 28.2629 84.313 27.421 84.313 26.3826C84.313 25.3442 83.4713 24.5024 82.4329 24.5024C81.3945 24.5024 80.5526 25.3442 80.5526 26.3826C80.5526 27.421 81.3945 28.2629 82.4329 28.2629Z" fill="#252525"/>
<path d="M28.7124 18.0221C33.5753 18.0221 37.5174 14.0799 37.5174 9.21694C37.5174 4.35404 33.5753 0.411865 28.7124 0.411865C23.8494 0.411865 19.9072 4.35404 19.9072 9.21694C19.9072 14.0799 23.8494 18.0221 28.7124 18.0221Z" fill="#252525"/>
<path d="M48.3958 18.0221C53.2588 18.0221 57.2009 14.0799 57.2009 9.21694C57.2009 4.35404 53.2588 0.411865 48.3958 0.411865C43.5329 0.411865 39.5907 4.35404 39.5907 9.21694C39.5907 14.0799 43.5329 18.0221 48.3958 18.0221Z" fill="#252525"/>
<path d="M17.8341 0.411865H0.2323V18.0136H17.8341V0.411865Z" fill="#252525"/>
</svg>
