<svg width="153" height="35" viewBox="0 0 153 35" fill="none" xmlns="http://www.w3.org/2000/svg">
<path d="M0.865524 34.5118H35.0656V0.311768H0.865524V34.5118ZM28.4829 14.1211H21.2562V6.89443H28.4829V14.1211ZM7.44686 6.89443H14.6776V20.7024H28.4829V27.9291H7.44686V6.89443ZM57.3362 0.311768C53.9541 0.311768 50.648 1.31467 47.836 3.19365C45.0238 5.07262 42.8321 7.74327 41.5378 10.8679C40.2436 13.9926 39.905 17.4307 40.5648 20.7478C41.2246 24.0648 42.8532 27.1118 45.2446 29.5032C47.6361 31.8948 50.683 33.5234 54.0001 34.1832C57.3173 34.843 60.7554 34.5044 63.8801 33.2102C67.0048 31.9159 69.6753 29.7242 71.5544 26.912C73.4333 24.0999 74.4362 20.7938 74.4362 17.4118C74.4309 12.8782 72.6276 8.53182 69.4218 5.3261C66.2161 2.12037 61.8698 0.317061 57.3362 0.311768ZM57.3362 27.9291C55.2561 27.9291 53.2226 27.3123 51.493 26.1566C49.7635 25.001 48.4154 23.3584 47.6194 21.4366C46.8234 19.5148 46.6152 17.4002 47.0209 15.3599C47.4268 13.3198 48.4285 11.4458 49.8993 9.97489C51.3702 8.50402 53.2442 7.50234 55.2844 7.09653C57.3245 6.69071 59.4392 6.89899 61.361 7.69502C63.2828 8.49105 64.9254 9.83909 66.081 11.5687C67.2368 13.2982 67.8536 15.3316 67.8536 17.4118C67.8493 20.1999 66.7398 22.8726 64.7684 24.844C62.7969 26.8155 60.1242 27.9248 57.3362 27.9291ZM135.628 0.311768C132.246 0.311514 128.94 1.31418 126.128 3.19299C123.315 5.07181 121.123 7.74237 119.829 10.867C118.534 13.9915 118.196 17.4299 118.855 20.747C119.515 24.0642 121.143 27.1112 123.535 29.5028C125.926 31.8944 128.973 33.5232 132.291 34.1831C135.607 34.843 139.046 34.5044 142.171 33.2103C145.295 31.916 147.966 29.7243 149.844 26.9122C151.724 24.1 152.727 20.7939 152.727 17.4118C152.722 12.8784 150.919 8.53225 147.714 5.32657C144.508 2.12087 140.162 0.317421 135.628 0.311768ZM135.628 27.9291C133.548 27.9294 131.515 27.3127 129.785 26.1572C128.055 25.0018 126.707 23.3592 125.91 21.4375C125.114 19.5158 124.906 17.401 125.311 15.3607C125.717 13.3206 126.719 11.4464 128.19 9.97537C129.66 8.50435 131.535 7.50254 133.575 7.09662C135.615 6.6907 137.73 6.8989 139.651 7.6949C141.574 8.49089 143.216 9.83891 144.372 11.5686C145.527 13.2982 146.144 15.3316 146.144 17.4118C146.14 20.1996 145.031 22.872 143.059 24.8435C141.088 26.815 138.416 27.9246 135.628 27.9291ZM96.4816 0.311768C93.0994 0.311768 89.7933 1.31467 86.9813 3.19365C84.1692 5.07262 81.9774 7.74327 80.6832 10.8679C79.3889 13.9926 79.0504 17.4307 79.7101 20.7478C80.37 24.0648 81.9985 27.1118 84.39 29.5032C86.7814 31.8948 89.8284 33.5234 93.1454 34.1832C96.4625 34.843 99.9007 34.5044 103.025 33.2102C106.15 31.9159 108.821 29.7242 110.7 26.912C112.579 24.0999 113.582 20.7938 113.582 17.4118C113.576 12.8782 111.773 8.53182 108.567 5.3261C105.361 2.12037 101.015 0.317061 96.4816 0.311768ZM96.4816 27.9291C94.5434 27.93 92.6429 27.3955 90.9894 26.3844C89.3361 25.3734 87.9941 23.9252 87.1118 22.1996C86.2297 20.474 85.8413 18.5382 85.9898 16.6059C86.1384 14.6735 86.8178 12.8198 87.9534 11.2492C89.089 9.67878 90.6365 8.45258 92.4249 7.70605C94.2134 6.9595 96.1734 6.72166 98.0885 7.01875C100.004 7.31586 101.799 8.13634 103.278 9.38966C104.756 10.643 105.859 12.2804 106.466 14.1211H96.4816V20.7024H106.466C105.771 22.8028 104.433 24.6314 102.641 25.9284C100.849 27.2256 98.6938 27.9255 96.4816 27.9291Z" fill="#252525"/>
</svg>
