<svg width="182" height="37" viewBox="0 0 182 37" fill="none" xmlns="http://www.w3.org/2000/svg">
<path d="M27.3444 16.2384C26.8391 16.7468 26.4522 17.3604 26.2111 18.0353C25.97 18.7104 25.8808 19.4303 25.9498 20.1437L25.9258 20.1197C25.9967 20.9596 25.8834 21.8047 25.5939 22.5963C25.3044 23.3877 24.8458 24.1065 24.2499 24.7025C23.6539 25.2984 22.9351 25.7572 22.1435 26.0465C21.352 26.336 20.5068 26.4493 19.6671 26.3784L19.6911 26.4024C18.6866 26.3089 17.6776 26.5275 16.8018 27.0284C15.926 27.5293 15.226 28.2881 14.7974 29.2015C14.3687 30.1148 14.232 31.138 14.4062 32.1319C14.5804 33.1256 15.0568 34.0415 15.7706 34.7545C16.4843 35.4676 17.4006 35.9432 18.3944 36.1164C19.3884 36.2897 20.4115 36.1521 21.3244 35.7227C22.2374 35.2931 22.9955 34.5925 23.4956 33.7163C23.9958 32.84 24.2135 31.8309 24.1191 30.8264L24.1444 30.8504C24.0735 30.0107 24.1867 29.1655 24.4762 28.3739C24.7656 27.5824 25.2244 26.8636 25.8203 26.2676C26.4163 25.6717 27.1351 25.2129 27.9266 24.9236C28.7182 24.6341 29.5632 24.5208 30.4031 24.5917L30.3778 24.5677C31.1983 24.6415 32.0243 24.5069 32.7791 24.1765C33.5338 23.8461 34.193 23.3305 34.6954 22.6776C35.1978 22.0247 35.5274 21.2553 35.6532 20.4412C35.7792 19.6269 35.6976 18.7941 35.416 18.0197C35.1344 17.2455 34.6619 16.5548 34.0423 16.0117C33.4227 15.4687 32.676 15.0908 31.8715 14.9132C31.067 14.7356 30.2306 14.7639 29.4399 14.9955C28.6492 15.2272 27.9299 15.6547 27.3484 16.2384H27.3444Z" fill="#252525"/>
<path d="M17.5084 23.2585L17.4831 23.2345C18.1968 23.3063 18.9176 23.2187 19.5935 22.9779C20.2692 22.7371 20.8831 22.3493 21.3906 21.8422C21.8979 21.3351 22.2864 20.7215 22.5276 20.0459C22.769 19.3703 22.8571 18.6497 22.7858 17.9358L22.8111 17.9598C22.7402 17.1199 22.8535 16.2749 23.1428 15.4833C23.4323 14.6918 23.8911 13.973 24.487 13.377C25.083 12.7811 25.8018 12.3223 26.5932 12.033C27.3848 11.7435 28.2299 11.6302 29.0698 11.7011L29.0444 11.6771C30.0491 11.7715 31.0583 11.5536 31.9346 11.0533C32.811 10.5529 33.5115 9.79444 33.9408 8.88128C34.3702 7.96813 34.5074 6.94476 34.3338 5.95074C34.1602 4.95673 33.6842 4.04049 32.9706 3.32697C32.2571 2.61346 31.3408 2.13741 30.3468 1.96378C29.3528 1.79014 28.3295 1.92736 27.4163 2.35672C26.5031 2.78606 25.7447 3.48666 25.2443 4.36294C24.7439 5.23921 24.526 6.2485 24.6204 7.25314L24.5964 7.22781C24.6675 8.06766 24.5544 8.91292 24.2651 9.70454C23.9758 10.4962 23.517 11.2151 22.9211 11.8111C22.3251 12.407 21.6062 12.8658 20.8146 13.1551C20.0228 13.4445 19.1776 13.5575 18.3378 13.4865L18.3618 13.5118C17.648 13.4399 16.9271 13.5275 16.2514 13.7683C15.5756 14.009 14.9618 14.397 14.4543 14.9041C13.9468 15.4111 13.5584 16.0247 13.3171 16.7003C13.0759 17.3759 12.9878 18.0966 13.0591 18.8105L13.0351 18.7865C13.1058 19.6262 12.9923 20.4713 12.7028 21.2627C12.4132 22.0541 11.9546 22.7729 11.3587 23.3687C10.7628 23.9646 10.0441 24.4233 9.25264 24.7129C8.46123 25.0023 7.61617 25.1158 6.77643 25.0451L6.80043 25.0691C5.79579 24.9747 4.78649 25.1926 3.91021 25.693C3.03395 26.1934 2.33335 26.9518 1.904 27.865C1.47464 28.7782 1.33741 29.8015 1.51105 30.7955C1.68469 31.7895 2.16075 32.7058 2.87425 33.4193C3.58777 34.1329 4.50401 34.6089 5.49803 34.7825C6.49204 34.9561 7.51541 34.8189 8.42857 34.3895C9.34172 33.9602 10.1002 33.2597 10.6006 32.3834C11.101 31.507 11.3188 30.4978 11.2244 29.4931L11.2498 29.5171C11.1788 28.6773 11.2922 27.8322 11.5816 27.0406C11.871 26.2491 12.3298 25.5303 12.9256 24.9343C13.5216 24.3385 14.2404 23.8797 15.0319 23.5903C15.8235 23.3009 16.6686 23.1875 17.5084 23.2585Z" fill="#252525"/>
<path d="M8.57242 20.5825C9.07778 20.0742 9.46469 19.4606 9.70554 18.7855C9.94639 18.1105 10.0352 17.3905 9.96575 16.6771L9.99107 16.7011C9.92014 15.8611 10.0334 15.0157 10.323 14.2239C10.6126 13.4322 11.0716 12.7133 11.6679 12.1173C12.2642 11.5213 12.9832 11.0627 13.7751 10.7734C14.567 10.4841 15.4124 10.3712 16.2524 10.4425L16.2271 10.4185C17.2314 10.5126 18.2403 10.2946 19.1162 9.79427C19.992 9.29396 20.6922 8.53566 21.1214 7.62279C21.5504 6.70991 21.6875 5.68691 21.5139 4.69327C21.3403 3.69963 20.8643 2.78374 20.1511 2.07048C19.4379 1.35723 18.5219 0.881335 17.5283 0.707709C16.5347 0.534069 15.5116 0.671162 14.5988 1.10026C13.6859 1.52935 12.9276 2.22958 12.4274 3.10544C11.927 3.98131 11.709 4.99019 11.8031 5.99448L11.7791 5.97048C11.85 6.81028 11.7367 7.65544 11.4472 8.44696C11.1578 9.23848 10.6991 9.9573 10.1032 10.5532C9.50723 11.1492 8.78841 11.6079 7.99689 11.8973C7.20537 12.1867 6.36022 12.3001 5.52042 12.2291L5.54442 12.2531C4.72385 12.1795 3.89797 12.3143 3.14333 12.6449C2.38869 12.9754 1.72969 13.4911 1.22741 14.1442C0.725127 14.7971 0.39582 15.5665 0.26998 16.3806C0.144153 17.1949 0.225873 18.0277 0.507567 18.8018C0.78926 19.5761 1.26183 20.2666 1.88147 20.8095C2.50111 21.3526 3.24778 21.7303 4.05229 21.9079C4.85678 22.0854 5.69309 22.057 6.48371 21.8254C7.27433 21.5937 7.99366 21.1662 8.57508 20.5825H8.57242Z" fill="#252525"/>
<path d="M49.8751 7.28369H53.8351V26.5544H49.8751V7.28369Z" fill="#252525"/>
<path d="M56.0778 19.9556C56.0723 18.5708 56.4779 17.2154 57.2432 16.0612C58.0086 14.9071 59.0992 14.006 60.3771 13.4723C61.655 12.9384 63.0624 12.7959 64.4214 13.0627C65.7803 13.3295 67.0295 13.9935 68.0107 14.9708C68.9919 15.948 69.661 17.1946 69.9332 18.5524C70.2055 19.9103 70.0686 21.3184 69.5399 22.5984C69.0112 23.8783 68.1146 24.9727 66.9635 25.7426C65.8123 26.5126 64.4587 26.9236 63.0738 26.9236C62.1546 26.9342 61.2424 26.7612 60.3907 26.4151C59.539 26.069 58.7648 25.5566 58.1135 24.9079C57.462 24.2591 56.9466 23.487 56.5971 22.6367C56.2475 21.7864 56.071 20.875 56.0778 19.9556ZM66.1098 19.9556C66.0932 19.3587 65.9011 18.7799 65.5575 18.2915C65.2138 17.8032 64.7338 17.427 64.1775 17.21C63.6211 16.993 63.0132 16.9447 62.4296 17.0714C61.846 17.198 61.3127 17.4938 60.8963 17.9219C60.48 18.3499 60.199 18.8912 60.0887 19.4782C59.9783 20.065 60.0432 20.6714 60.2756 21.2215C60.508 21.7716 60.8974 22.241 61.395 22.571C61.8927 22.901 62.4767 23.077 63.0738 23.077C63.4827 23.0879 63.8895 23.0139 64.2686 22.8598C64.6475 22.7056 64.9904 22.4747 65.2756 22.1815C65.5608 21.8882 65.7823 21.539 65.9258 21.1559C66.0694 20.7728 66.132 20.3642 66.1098 19.9556Z" fill="#252525"/>
<path d="M85.8524 13.3556V25.889C85.8524 30.3236 82.3937 32.1983 78.8831 32.1983C77.6471 32.2908 76.4093 32.0411 75.3057 31.4767C74.2023 30.9122 73.2755 30.0547 72.6271 28.9983L76.0057 27.045C76.2783 27.5956 76.7125 28.0499 77.2503 28.3471C77.7881 28.6442 78.4039 28.77 79.0151 28.7076C79.4057 28.7618 79.8036 28.7274 80.1792 28.607C80.5547 28.4866 80.8984 28.2832 81.1848 28.0122C81.4712 27.741 81.6929 27.409 81.8337 27.0404C81.9744 26.672 82.0304 26.2767 81.9977 25.8836V24.677C81.534 25.2443 80.9439 25.6951 80.2744 25.9931C79.6049 26.2911 78.8751 26.428 78.1431 26.393C76.4015 26.338 74.7496 25.6076 73.5371 24.3562C72.3245 23.1048 71.6465 21.4307 71.6465 19.6883C71.6465 17.9459 72.3245 16.2718 73.5371 15.0204C74.7496 13.769 76.4015 13.0386 78.1431 12.9836C78.8751 12.9486 79.6049 13.0855 80.2744 13.3835C80.9439 13.6815 81.534 14.1323 81.9977 14.6996V13.353L85.8524 13.3556ZM81.9991 19.6903C82.0257 19.0522 81.8607 18.4206 81.5253 17.877C81.19 17.3332 80.6996 16.9024 80.1173 16.6399C79.5351 16.3772 78.8876 16.295 78.2581 16.4035C77.6287 16.512 77.0461 16.8064 76.5853 17.249C76.1247 17.6914 75.8069 18.2615 75.6729 18.886C75.5391 19.5106 75.5951 20.161 75.834 20.7534C76.0728 21.3458 76.4835 21.8532 77.0131 22.2103C77.5427 22.5674 78.1671 22.7578 78.8057 22.757C79.2219 22.786 79.6393 22.7276 80.0315 22.5855C80.4236 22.4434 80.7816 22.2206 81.0824 21.9318C81.3832 21.6428 81.6203 21.2942 81.7781 20.908C81.936 20.522 82.0113 20.1072 81.9991 19.6903Z" fill="#252525"/>
<path d="M88.0951 19.9556C88.0896 18.5708 88.4951 17.2154 89.2606 16.0612C90.0259 14.9071 91.1166 14.006 92.3944 13.4723C93.6723 12.9384 95.0798 12.7959 96.4387 13.0627C97.7976 13.3295 99.0468 13.9935 100.028 14.9708C101.009 15.948 101.678 17.1946 101.951 18.5524C102.223 19.9103 102.086 21.3184 101.557 22.5984C101.029 23.8783 100.132 24.9727 98.9808 25.7426C97.8296 26.5126 96.476 26.9236 95.0911 26.9236C94.1719 26.9342 93.2596 26.7612 92.408 26.4151C91.5563 26.069 90.7822 25.5566 90.1308 24.9079C89.4794 24.2591 88.9639 23.487 88.6144 22.6367C88.2648 21.7864 88.0883 20.875 88.0951 19.9556ZM98.1271 19.9556C98.1106 19.3587 97.9184 18.7799 97.5748 18.2915C97.2311 17.8032 96.7511 17.427 96.1948 17.21C95.6384 16.993 95.0304 16.9447 94.447 17.0714C93.8634 17.198 93.33 17.4938 92.9136 17.9219C92.4974 18.3499 92.2163 18.8912 92.1059 19.4782C91.9955 20.065 92.0606 20.6714 92.293 21.2215C92.5254 21.7716 92.9147 22.241 93.4123 22.571C93.91 22.901 94.4939 23.077 95.0911 23.077C95.5 23.0879 95.9068 23.0139 96.2858 22.8598C96.6648 22.7056 97.0078 22.4747 97.293 22.1815C97.5782 21.8882 97.7996 21.539 97.9431 21.1559C98.0867 20.7728 98.1494 20.3642 98.1271 19.9556Z" fill="#252525"/>
<path d="M103.934 9.81839C103.934 9.34845 104.073 8.88908 104.334 8.49836C104.595 8.10763 104.966 7.80308 105.401 7.62325C105.835 7.44341 106.312 7.39636 106.773 7.48804C107.234 7.57972 107.658 7.80601 107.99 8.13831C108.322 8.47059 108.548 8.89395 108.64 9.35485C108.732 9.81575 108.685 10.2935 108.505 10.7276C108.325 11.1618 108.021 11.5329 107.63 11.794C107.239 12.0551 106.78 12.1944 106.31 12.1944C105.682 12.1881 105.081 11.9359 104.637 11.4916C104.192 11.0473 103.94 10.4466 103.934 9.81839ZM104.334 13.3557H108.295V26.5557H104.328L104.334 13.3557Z" fill="#252525"/>
<path d="M125.394 19.9557C125.44 20.8281 125.312 21.7009 125.02 22.524C124.727 23.347 124.274 24.1041 123.688 24.7517C123.102 25.3992 122.393 25.9245 121.603 26.2973C120.813 26.67 119.957 26.8829 119.084 26.9237C118.351 26.9637 117.617 26.84 116.937 26.5614C116.257 26.2828 115.647 25.8564 115.152 25.313V31.8344H111.192V13.3557H115.152V14.5957C115.648 14.0528 116.257 13.6266 116.937 13.3484C117.617 13.07 118.351 12.9464 119.084 12.9864C119.957 13.027 120.813 13.2398 121.604 13.6126C122.394 13.9854 123.103 14.5108 123.689 15.1585C124.275 15.8062 124.728 16.5636 125.02 17.3869C125.313 18.2101 125.44 19.0832 125.394 19.9557ZM121.434 19.9557C121.418 19.338 121.221 18.7385 120.866 18.2322C120.512 17.7261 120.016 17.3357 119.441 17.1101C118.866 16.8844 118.236 16.8333 117.632 16.9634C117.028 17.0934 116.476 17.3988 116.044 17.8412C115.613 18.2837 115.322 18.8434 115.207 19.4508C115.092 20.058 115.159 20.6854 115.399 21.2549C115.639 21.8244 116.042 22.3102 116.557 22.652C117.072 22.9936 117.676 23.1758 118.294 23.1757C118.718 23.1946 119.142 23.1236 119.536 22.9673C119.931 22.8112 120.289 22.5732 120.585 22.2692C120.882 21.965 121.11 21.6018 121.257 21.2032C121.403 20.8045 121.463 20.3793 121.434 19.9557Z" fill="#252525"/>
<path d="M137.614 22.5943C137.614 25.6303 134.975 26.9236 132.124 26.9236C130.972 27.0279 129.816 26.7844 128.804 26.2243C127.792 25.6643 126.972 24.8136 126.448 23.7823L129.879 21.829C130.018 22.3056 130.316 22.7204 130.724 23.0038C131.131 23.2872 131.624 23.4223 132.119 23.3863C133.068 23.3863 133.544 23.0956 133.544 22.569C133.544 21.1156 127.05 21.8823 127.05 17.3156C127.05 14.437 129.479 12.9863 132.224 12.9863C133.256 12.9536 134.278 13.1984 135.183 13.6951C136.088 14.1919 136.844 14.9223 137.371 15.8103L133.992 17.6316C133.844 17.2859 133.598 16.9914 133.283 16.7848C132.968 16.5783 132.6 16.469 132.224 16.4703C131.538 16.4703 131.115 16.737 131.115 17.209C131.12 18.7143 137.614 17.7103 137.614 22.5943Z" fill="#252525"/>
<path d="M152.079 13.3557V26.5557H148.119V25.3144C147.662 25.8621 147.082 26.2937 146.426 26.5737C145.77 26.8537 145.058 26.9741 144.346 26.925C141.679 26.925 139.412 25.025 139.412 21.4584V13.3557H143.372V20.8784C143.339 21.1928 143.375 21.5106 143.478 21.8097C143.579 22.1089 143.746 22.3822 143.964 22.6106C144.183 22.839 144.448 23.017 144.743 23.1324C145.036 23.2477 145.352 23.2976 145.668 23.2784C147.12 23.2784 148.123 22.4344 148.123 20.5597V13.3597L152.079 13.3557Z" fill="#252525"/>
<path d="M174.786 18.4504V26.5544H170.826V18.793C170.826 17.473 170.192 16.629 168.926 16.629C167.606 16.629 166.866 17.553 166.866 19.1104V26.5544H162.907V18.793C162.907 17.473 162.274 16.629 161.006 16.629C159.686 16.629 158.947 17.553 158.947 19.1104V26.5544H154.987V13.3544H158.947V14.5677C159.358 14.0294 159.896 13.6025 160.514 13.3261C161.132 13.0496 161.81 12.9324 162.484 12.985C163.162 12.9518 163.836 13.0949 164.443 13.4001C165.048 13.7052 165.564 14.1622 165.942 14.7264C166.38 14.1361 166.962 13.6668 167.631 13.3622C168.3 13.0577 169.036 12.928 169.77 12.985C172.8 12.9864 174.786 15.1504 174.786 18.4504Z" fill="#252525"/>
<path d="M178.135 13.2743C179.758 13.2743 181.074 11.9586 181.074 10.3356C181.074 8.71265 179.758 7.39697 178.135 7.39697C176.512 7.39697 175.196 8.71265 175.196 10.3356C175.196 11.9586 176.512 13.2743 178.135 13.2743Z" fill="#252525"/>
</svg>
