<svg width="30" height="30" viewBox="0 0 30 30" fill="none" xmlns="http://www.w3.org/2000/svg">
<path d="M14.9821 0C17.0609 0 19.0084 0.394265 20.8244 1.1828C22.6404 1.97133 24.2294 3.04062 25.5914 4.39068C26.9534 5.74074 28.0287 7.32378 28.8172 9.13979C29.6057 10.9558 30 12.9032 30 14.9821C30 17.0609 29.6057 19.0084 28.8172 20.8244C28.0287 22.6404 26.9534 24.2294 25.5914 25.5914C24.2294 26.9534 22.6404 28.0287 20.8244 28.8172C19.0084 29.6057 17.0609 30 14.9821 30C12.9032 30 10.9558 29.6057 9.13979 28.8172C7.32378 28.0287 5.74074 26.9534 4.39068 25.5914C3.04062 24.2294 1.97133 22.6404 1.1828 20.8244C0.394265 19.0084 0 17.0609 0 14.9821C0 12.9032 0.394265 10.9558 1.1828 9.13979C1.97133 7.32378 3.04062 5.74074 4.39068 4.39068C5.74074 3.04062 7.32378 1.97133 9.13979 1.1828C10.9558 0.394265 12.9032 0 14.9821 0ZM10.3226 11.2545H6.55914V23.4409H10.3226V11.2545ZM8.42294 10.2867C8.94863 10.2867 9.39666 10.1075 9.76703 9.7491C10.1374 9.39068 10.3226 8.94863 10.3226 8.42294C10.3226 7.89725 10.1374 7.4552 9.76703 7.09677C9.39666 6.73835 8.94863 6.55914 8.42294 6.55914C7.89725 6.55914 7.4552 6.73835 7.09677 7.09677C6.73835 7.4552 6.55914 7.89725 6.55914 8.42294C6.55914 8.94863 6.73835 9.39068 7.09677 9.7491C7.4552 10.1075 7.89725 10.2867 8.42294 10.2867ZM23.4409 16.3799C23.4409 15.5197 23.2019 14.6774 22.724 13.853C22.2461 13.0287 21.6249 12.4014 20.8602 11.9713C20.1673 11.589 19.3608 11.3859 18.4409 11.362C17.5209 11.3381 16.6786 11.4934 15.914 11.828V11.2545H12.1864V23.4409H15.914V15.9857L17.491 15.233C17.6822 15.1374 17.9391 15.0896 18.2617 15.0896C18.5842 15.0896 18.8411 15.1493 19.0323 15.2688C19.1756 15.3405 19.319 15.4958 19.4624 15.7348C19.6057 15.9737 19.6774 16.1888 19.6774 16.3799V23.4409H23.4409V16.3799Z" fill="#252525"/>
</svg>
